# xmcd
#
# Track frame offsets:
#	182
#	10855
#	23257
#	42370
#	58142
#	71632
#	86480
#	105450
#	118752
#	132987
#	142027
#	154110
#	163592
#	174192
#	188862
#	205070
#	221095
#	239260
#	251625
#	270680
#
# Disc length: 3806 seconds
#
# Revision: 1
# Processed by: cddbd v1.5PL3 Copyright (c) Steve Scherf et al.
# Submitted via: audiograbber 1.82.02
#
DISCID=170edc14
DTITLE=Various Artist - Potlach v udoli 2
DYEAR=1990
DGENRE=
TTITLE0=Pojd, devce
TTITLE1=Vsechny stary trempy mam rad
TTITLE2=Pampelisky (Devce z Montany)
TTITLE3=Nad Mednikem
TTITLE4=Mesic nad Pumpahomou
TTITLE5=Pojd, kamarade
TTITLE6=Zlaty vlasy
TTITLE7=Dva kamaradi
TTITLE8=Niagara
TTITLE9=Kluci, hledam kapitana
TTITLE10=Montana
TTITLE11=Jen ty, ma Sazavo
TTITLE12=Az se vratime pod Mednik
TTITLE13=Devcatko
TTITLE14=Samotar
TTITLE15=Kdyby prisla Kazi
TTITLE16=Miriam
TTITLE17=Kdyz vitr zacne dout
TTITLE18=Leto uz ma celtu zbalenou
TTITLE19=Na shledanou
EXTD=
EXTT0=
EXTT1=
EXTT2=
EXTT3=
EXTT4=
EXTT5=
EXTT6=
EXTT7=
EXTT8=
EXTT9=
EXTT10=
EXTT11=
EXTT12=
EXTT13=
EXTT14=
EXTT15=
EXTT16=
EXTT17=
EXTT18=
EXTT19=
PLAYORDER=
